<svg version="1" xmlns="http://www.w3.org/2000/svg" width="346.667" height="346.667" viewBox="0 0 260.000000 260.000000"><path d="M123.7 2.4c-11.7 4.2-17.9 17-13.1 27.2 2.5 5.2 8.6 10.1 14.9 11.9 17.2 5 34.7-9 30.5-24.5-3.2-12-19.3-19.2-32.3-14.6zm25.2 12.7c3.9 6.9 1.7 14.5-5.8 19.6-6.1 4.2-14.4 3.9-22-.7-4.5-2.8-3.5-3.5 1.4-1 11.1 5.7 25.5-1.5 25.5-12.8 0-3.7-1.2-6.5-4.4-10.1l-2.1-2.4 2.6 1.6c1.4.9 3.6 3.5 4.8 5.8z"/><path d="M161.2 29.6c-1.9 6.9-9.3 13.7-17.8 16.4-3.7 1.1-8.5 2-10.9 2-3.8 0-4.5.4-6.3 3.4-1.1 1.9-5.5 6-9.7 9.2-13.5 10.2-13.9 16.7-1.6 24.5l4.5 2.9h-4.5c-6.1 0-16.6-2.6-20.6-5.1-4.1-2.6-6.3-6.6-6.3-11.5 0-5.4 6.1-10.9 16.6-15.2 4.5-1.8 10.2-4.6 12.9-6.4l4.7-3.1-2.7-1.4c-2.5-1.4-3.2-1.2-10.8 2.8-4.5 2.3-11.8 6.2-16.1 8.8-23.9 13.9-15.7 28.2 19.8 34.6 11.3 2 31.4 1.6 40.3-.8 13.5-3.8 24.7-11.9 27.9-20.3 2.6-6.8 1.5-16.5-2.8-25.6-3.2-6.7-12.9-19.8-14.6-19.8-.4 0-1.3 2.1-2 4.6z"/><path d="M188.2 66.8C185.3 81 173 91.3 153 96.4c-23.2 5.9-59.5.3-74.3-11.6l-3.9-3-7.2 3.6c-11.7 5.7-18.3 14.5-16.8 22.2 1.1 6 12.9 14.5 26.7 19.2 11.8 4 20.7 5.3 39.2 5.9 42.4 1.3 77.5-7.2 91.2-22.2 10.2-11.2 9.3-23.9-2.6-36.6-4.8-5.3-13.9-12.9-15.2-12.9-.4 0-1.2 2.6-1.9 5.8zM73.3 91.2c-11.2 12.2-4.2 23.8 20.1 33.4l6.1 2.5-4.9-.6c-14.1-1.8-28.5-7.4-33.4-12.9-4.9-5.6-4-10.8 3-17.2 6.6-6.1 13.6-10.1 9.1-5.2z"/><path d="M219.6 103.7c-4.6 14.6-25.7 26.5-56.5 31.8-22.5 4-53.4 4.4-70.9 1C74 133 58 125.9 49.8 117.7c-4.7-4.7-5-4.8-8.2-3.7-7.8 2.5-15.6 12.6-15.6 20.1 0 20 48 33.5 112.7 31.5 38-1.1 53.9-3.7 68.9-11.1 15.9-7.8 26.4-20.9 26.4-33.1 0-6.1-4.2-15.3-9.3-20.2l-3.3-3.2-1.8 5.7zM41.1 121.8c-1.7 3.2-1.3 8.9.8 13.1 3.6 7 10.4 12.9 22.4 19.2 3.9 2.1 6.9 3.9 6.5 3.9-.4 0-4.4-1.2-9-2.6-25.5-8.1-33.5-18.9-23.7-32.4 3-4.2 5-5 3-1.2zM40.2 169.6c-1.4.9-2.2 2.6-2.2 4.4 0 3.6 5.5 19.4 13.4 38.5 3.5 8.2 7.8 19.3 9.6 24.5 1.8 5.2 4 10 4.8 10.7 1.8 1.4 15.9 6.3 18.4 6.3 1.5 0 1.4-.9-.8-9.3-1.4-5-5.1-17.8-8.4-28.2-3.3-10.5-7.3-24.1-8.9-30.3-1.6-6.3-3.5-12-4.2-12.9-4.1-4.8-16.9-7.1-21.7-3.7zM218.5 169.4c-5 2.3-7.2 5.6-9.5 14.6-1.2 4.7-5 17.8-8.5 29.1-7.8 25.3-11.8 39.9-11.1 40.6.6.6 12.8-3.3 17.6-5.7 3.1-1.6 3.8-2.7 5.9-9.2 1.3-4 5.8-15.9 10.1-26.3 8-19.3 14-36 14-38.9 0-.8-1-2.4-2.2-3.6-2.6-2.4-11.5-2.7-16.3-.6zM175.8 174.1c-5.7 1.6-8.5 4.9-9.3 10.5-.4 2.7-2.6 17.9-5.1 33.9-2.4 16-4.6 31.7-5 34.9l-.7 5.9 8.3-.7c9.3-.8 12-1.8 12-4.6 0-1 3.6-16.2 8-33.7 4.5-17.5 8.2-34.2 8.3-37.2.2-4.7-.1-5.6-2.4-7.3-3.1-2.4-9.1-3.1-14.1-1.7zM83.1 176.1c-3.3 2-3.4 2.1-2.8 7.7.4 3.1 4.2 20 8.7 37.6 4.4 17.5 8 32.6 8 33.6 0 2.1 2.1 2.8 12.4 3.6l7.8.7-.7-5.4c-.3-3-2.4-16.7-4.5-30.4-2.2-13.8-4.4-28.8-5-33.5-1.4-10.4-2.1-11.7-7.3-14.1-5.6-2.5-12.3-2.4-16.6.2zM129.5 176.4c-1.6.7-3.9 2.3-4.9 3.5-1.9 2.1-1.9 2.6.3 37.9 1.2 19.6 2.3 37 2.4 38.7l.2 3 9.8.3c7.3.2 9.8-.1 10.1-1 1.1-3.4 3.3-76.4 2.4-78.1-2.4-4.6-14.1-7.1-20.3-4.3z"/></svg>